<svg width="105" height="44" viewBox="0 0 105 44" fill="none" xmlns="http://www.w3.org/2000/svg">
<path d="M73.52 32.37L76.63 35.48C76.95 35.8 76.95 36.32 76.62 36.63C72.69 40.27 67.68 42.09 62.67 42.09H103.01C103.45 42.09 103.81 41.73 103.81 41.29V2.87995C103.81 2.15995 102.94 1.80995 102.44 2.30995L73.52 31.23C73.21 31.54 73.21 32.05 73.52 32.37Z" fill="#38BAC3" stroke="white" stroke-width="1.89" stroke-miterlimit="10"/>
<path d="M62.66 42.09C67.67 42.09 72.68 40.27 76.61 36.63C76.94 36.32 76.94 35.8 76.62 35.48L63.22 22.08C62.91 21.77 62.91 21.26 63.22 20.94L76.62 7.53999C76.94 7.21999 76.94 6.69999 76.61 6.38999C71.61 1.76999 64.86 0.0899882 58.58 1.35999C57.89 1.49999 57.68 2.39999 58.26 2.79999C60.92 4.65999 62.66 7.73999 62.66 11.23C62.66 15.55 60 19.25 56.23 20.77C55.55 21.04 55.55 21.99 56.23 22.26C60 23.78 62.66 27.48 62.66 31.8C62.66 35.29 60.92 38.37 58.26 40.23C57.68 40.63 57.88 41.53 58.57 41.67C59.92 41.94 61.29 42.08 62.66 42.08V42.09Z" fill="#E83A2A" stroke="white" stroke-width="1.89" stroke-miterlimit="10"/>
<path d="M42.09 21.52C42.09 32.88 32.88 42.09 21.52 42.09H52.38C53.04 42.09 53.69 42.03 54.32 41.91C55.09 41.76 55.18 40.7 54.46 40.39C52.16 39.39 50.01 37.95 48.13 36.07C44.11 32.05 42.1 26.79 42.1 21.52H42.09Z" fill="#38BAC3" stroke="white" stroke-width="1.89" stroke-miterlimit="10"/>
<path d="M41.3 21.52C41.74 21.52 42.08 21.1699 42.1 20.7299C42.29 15.7299 44.29 10.79 48.11 6.96995C49.99 5.08995 52.15 3.64995 54.44 2.64995C55.16 2.33995 55.07 1.26995 54.3 1.12995C53.67 1.00995 53.03 0.949951 52.36 0.949951H22.3C21.86 0.949951 21.5 1.30995 21.5 1.74995V20.7199C21.5 21.1599 21.86 21.52 22.3 21.52H41.28H41.3Z" fill="#38BAC3" stroke="white" stroke-width="1.89" stroke-miterlimit="10"/>
<path d="M62.66 31.8001C62.66 27.4801 60 23.7801 56.23 22.2601C55.55 21.9901 55.55 21.0401 56.23 20.7701C60 19.2501 62.66 15.5501 62.66 11.2301C62.66 7.17005 60.31 3.67005 56.9 1.99005C56.71 1.90005 56.49 1.88005 56.29 1.95005C53.3 2.92005 50.48 4.59005 48.11 6.97005C44.09 10.9901 42.08 16.2501 42.08 21.5201C42.08 26.7901 44.09 32.0501 48.11 36.0701C50.49 38.4501 53.3 40.1201 56.29 41.0901C56.49 41.1501 56.71 41.1401 56.9 41.0501C60.31 39.3801 62.66 35.8701 62.66 31.8101V31.8001Z" fill="#1B2B7B" stroke="white" stroke-width="1.89" stroke-miterlimit="10"/>
<path d="M21.52 1.77004C21.52 1.32004 21.15 0.950037 20.7 0.960037C9.71 1.39004 0.940002 10.43 0.940002 21.52C0.940002 32.61 9.71 41.65 20.69 42.08C21.14 42.1 21.51 41.73 21.51 41.27V1.77004H21.52Z" fill="#E83A2A" stroke="white" stroke-width="1.89" stroke-miterlimit="10"/>
<path d="M41.27 21.52H22.32C21.88 21.52 21.52 21.88 21.52 22.32V41.27C21.52 41.72 21.89 42.09 22.34 42.08C33.05 41.66 41.65 33.05 42.07 22.35C42.09 21.9 41.72 21.53 41.26 21.53L41.27 21.52Z" fill="#1B2B7B" stroke="white" stroke-width="1.89" stroke-miterlimit="10"/>
</svg>
