<svg width="159" height="58" viewBox="0 0 159 58" fill="none" xmlns="http://www.w3.org/2000/svg">
<path d="M73.5199 32.37L76.6299 35.48C76.9499 35.8 76.9499 36.32 76.6199 36.63C72.6899 40.27 67.6799 42.09 62.6699 42.09H103.01C103.45 42.09 103.81 41.73 103.81 41.29V2.87995C103.81 2.15995 102.94 1.80995 102.44 2.30995L73.5199 31.23C73.2099 31.54 73.2099 32.05 73.5199 32.37Z" fill="#38BAC3" stroke="white" stroke-width="1.89" stroke-miterlimit="10"/>
<path d="M62.66 42.09C67.67 42.09 72.68 40.27 76.61 36.63C76.94 36.32 76.94 35.8 76.62 35.48L63.22 22.08C62.91 21.77 62.91 21.26 63.22 20.94L76.62 7.53999C76.94 7.21999 76.94 6.69999 76.61 6.38999C71.61 1.76999 64.86 0.0899882 58.58 1.35999C57.89 1.49999 57.68 2.39999 58.26 2.79999C60.92 4.65999 62.66 7.73999 62.66 11.23C62.66 15.55 60 19.25 56.23 20.77C55.55 21.04 55.55 21.99 56.23 22.26C60 23.78 62.66 27.48 62.66 31.8C62.66 35.29 60.92 38.37 58.26 40.23C57.68 40.63 57.88 41.53 58.57 41.67C59.92 41.94 61.29 42.08 62.66 42.08V42.09Z" fill="#E83A2A" stroke="white" stroke-width="1.89" stroke-miterlimit="10"/>
<path d="M42.0899 21.52C42.0899 32.88 32.8799 42.09 21.5199 42.09H52.3799C53.0399 42.09 53.6899 42.03 54.3199 41.91C55.0899 41.76 55.1799 40.7 54.4599 40.39C52.1599 39.39 50.0099 37.95 48.1299 36.07C44.1099 32.05 42.0999 26.79 42.0999 21.52H42.0899Z" fill="#38BAC3" stroke="white" stroke-width="1.89" stroke-miterlimit="10"/>
<path d="M41.3 21.52C41.74 21.52 42.08 21.17 42.1 20.7299C42.29 15.7299 44.29 10.79 48.11 6.96995C49.99 5.08995 52.15 3.64995 54.44 2.64995C55.16 2.33995 55.07 1.26995 54.3 1.12995C53.67 1.00995 53.03 0.949951 52.36 0.949951H22.3C21.86 0.949951 21.5 1.30995 21.5 1.74995V20.7199C21.5 21.16 21.86 21.52 22.3 21.52H41.28H41.3Z" fill="#38BAC3" stroke="white" stroke-width="1.89" stroke-miterlimit="10"/>
<path d="M62.66 31.7999C62.66 27.4799 60 23.7799 56.23 22.2599C55.55 21.9899 55.55 21.0399 56.23 20.7699C60 19.2499 62.66 15.5499 62.66 11.2299C62.66 7.16993 60.31 3.66993 56.9 1.98993C56.71 1.89993 56.49 1.87993 56.29 1.94993C53.3 2.91993 50.48 4.58993 48.11 6.96993C44.09 10.9899 42.08 16.2499 42.08 21.5199C42.08 26.7899 44.09 32.0499 48.11 36.0699C50.49 38.4499 53.3 40.1199 56.29 41.0899C56.49 41.1499 56.71 41.1399 56.9 41.0499C60.31 39.3799 62.66 35.8699 62.66 31.8099V31.7999Z" fill="#1B2B7B" stroke="white" stroke-width="1.89" stroke-miterlimit="10"/>
<path d="M21.5199 1.77004C21.5199 1.32004 21.1499 0.950037 20.6999 0.960037C9.70994 1.39004 0.939941 10.43 0.939941 21.52C0.939941 32.61 9.70994 41.65 20.6899 42.08C21.1399 42.1 21.5099 41.73 21.5099 41.27V1.77004H21.5199Z" fill="#E83A2A" stroke="white" stroke-width="1.89" stroke-miterlimit="10"/>
<path d="M41.2699 21.52H22.3199C21.8799 21.52 21.5199 21.88 21.5199 22.32V41.27C21.5199 41.72 21.8899 42.09 22.3399 42.08C33.0499 41.66 41.6499 33.05 42.0699 22.35C42.0899 21.9 41.7199 21.53 41.2599 21.53L41.2699 21.52Z" fill="#1B2B7B" stroke="white" stroke-width="1.89" stroke-miterlimit="10"/>
<path d="M110.12 7.87996C110.12 5.69996 111.59 4.45996 113.33 4.45996C114.29 4.45996 114.97 4.85996 115.42 5.30996L114.6 6.30996C114.27 6.01996 113.93 5.79996 113.39 5.79996C112.42 5.79996 111.73 6.55996 111.73 7.82996C111.73 9.09996 112.31 9.87996 113.53 9.87996C113.76 9.87996 114 9.81996 114.14 9.70996V8.65996H113.1V7.37996H115.53V10.44C115.07 10.88 114.27 11.24 113.35 11.24C111.54 11.24 110.11 10.1 110.11 7.88996L110.12 7.87996Z" fill="#1B2B7B"/>
<path d="M116.51 9.48998V4.09998H118.07V9.53998C118.07 9.86998 118.22 9.96998 118.34 9.96998C118.39 9.96998 118.43 9.96998 118.52 9.94998L118.7 11.1C118.53 11.17 118.28 11.23 117.93 11.23C116.86 11.23 116.51 10.53 116.51 9.47998V9.48998Z" fill="#1B2B7B"/>
<path d="M118.93 8.60999C118.93 6.95999 120.11 5.98999 121.38 5.98999C122.65 5.98999 123.82 6.95999 123.82 8.60999C123.82 10.26 122.64 11.24 121.38 11.24C120.12 11.24 118.93 10.27 118.93 8.60999ZM122.22 8.60999C122.22 7.77999 121.96 7.25999 121.38 7.25999C120.8 7.25999 120.53 7.78999 120.53 8.60999C120.53 9.42999 120.79 9.96999 121.38 9.96999C121.97 9.96999 122.22 9.43999 122.22 8.60999Z" fill="#1B2B7B"/>
<path d="M125.96 10.58H125.92L125.8 11.12H124.58V4.10999H126.14V5.79999L126.1 6.54999C126.47 6.21999 126.93 6.00999 127.39 6.00999C128.58 6.00999 129.35 7.00999 129.35 8.53999C129.35 10.27 128.32 11.25 127.25 11.25C126.81 11.25 126.35 11.02 125.97 10.59L125.96 10.58ZM127.74 8.55999C127.74 7.67999 127.49 7.26999 126.93 7.26999C126.64 7.26999 126.4 7.39999 126.14 7.68999V9.66999C126.38 9.88999 126.64 9.95999 126.88 9.95999C127.35 9.95999 127.74 9.55999 127.74 8.55999Z" fill="#1B2B7B"/>
<path d="M129.8 9.72C129.8 8.67 130.63 8.1 132.57 7.89C132.53 7.49 132.32 7.25 131.82 7.25C131.42 7.25 131.01 7.41 130.51 7.69L129.97 6.66C130.63 6.26 131.34 6 132.12 6C133.41 6 134.14 6.72 134.14 8.28V11.12H132.87L132.76 10.62H132.72C132.31 10.99 131.84 11.24 131.29 11.24C130.37 11.24 129.81 10.56 129.81 9.72H129.8ZM132.57 9.63V8.83C131.6 8.95 131.28 9.24 131.28 9.59C131.28 9.88 131.49 10.02 131.82 10.02C132.15 10.02 132.35 9.87 132.57 9.62V9.63Z" fill="#1B2B7B"/>
<path d="M135.12 9.48998V4.09998H136.68V9.53998C136.68 9.86998 136.83 9.96998 136.95 9.96998C137 9.96998 137.04 9.96998 137.13 9.94998L137.31 11.1C137.14 11.17 136.89 11.23 136.54 11.23C135.47 11.23 135.12 10.53 135.12 9.47998V9.48998Z" fill="#1B2B7B"/>
<path d="M110.42 15.1H112.7C114.05 15.1 115.13 15.47 115.13 16.72C115.13 17.3 114.81 17.93 114.28 18.13V18.17C114.94 18.35 115.44 18.84 115.44 19.71C115.44 21.04 114.31 21.64 112.88 21.64H110.41V15.1H110.42ZM112.64 17.7C113.31 17.7 113.61 17.41 113.61 16.96C113.61 16.51 113.3 16.3 112.64 16.3H111.99V17.7H112.64ZM112.77 20.44C113.53 20.44 113.91 20.17 113.91 19.61C113.91 19.05 113.53 18.86 112.77 18.86H111.99V20.45H112.77V20.44Z" fill="#1B2B7B"/>
<path d="M116.13 19.74V16.65H117.69V19.55C117.69 20.23 117.87 20.44 118.27 20.44C118.62 20.44 118.84 20.3 119.1 19.93V16.66H120.66V21.66H119.39L119.28 20.98H119.24C118.83 21.47 118.36 21.79 117.69 21.79C116.59 21.79 116.13 21.01 116.13 19.76V19.74Z" fill="#1B2B7B"/>
<path d="M121.27 21.0699L121.96 20.0999C122.42 20.4399 122.83 20.6299 123.22 20.6299C123.61 20.6299 123.81 20.4799 123.81 20.2299C123.81 19.9299 123.33 19.7899 122.82 19.5899C122.22 19.3499 121.55 18.9499 121.55 18.1199C121.55 17.1799 122.31 16.5399 123.48 16.5399C124.26 16.5399 124.84 16.8599 125.26 17.1799L124.57 18.1099C124.21 17.8599 123.86 17.6899 123.53 17.6899C123.17 17.6899 123 17.8099 123 18.0499C123 18.3499 123.43 18.4599 123.95 18.6499C124.57 18.8899 125.27 19.2499 125.27 20.1499C125.27 21.0499 124.55 21.7799 123.19 21.7799C122.54 21.7799 121.78 21.4999 121.27 21.0799V21.0699Z" fill="#1B2B7B"/>
<path d="M125.87 15.15C125.87 14.67 126.21 14.35 126.74 14.35C127.27 14.35 127.61 14.67 127.61 15.15C127.61 15.63 127.26 15.96 126.74 15.96C126.22 15.96 125.87 15.64 125.87 15.15ZM125.96 16.65H127.52V21.65H125.96V16.65Z" fill="#1B2B7B"/>
<path d="M128.55 16.65H129.82L129.93 17.27H129.96C130.37 16.87 130.88 16.52 131.56 16.52C132.65 16.52 133.11 17.3 133.11 18.55V21.64H131.55V18.74C131.55 18.05 131.37 17.85 130.97 17.85C130.62 17.85 130.41 18.01 130.11 18.3V21.64H128.55V16.64V16.65Z" fill="#1B2B7B"/>
<path d="M133.83 19.14C133.83 17.52 135 16.52 136.2 16.52C137.64 16.52 138.34 17.56 138.34 18.93C138.34 19.21 138.3 19.48 138.27 19.61H135.34C135.48 20.29 135.95 20.58 136.59 20.58C136.95 20.58 137.28 20.47 137.64 20.26L138.16 21.2C137.64 21.57 136.96 21.77 136.38 21.77C134.94 21.77 133.83 20.8 133.83 19.14ZM137.02 18.58C137.02 18.09 136.8 17.72 136.23 17.72C135.8 17.72 135.42 17.99 135.32 18.58H137.02Z" fill="#1B2B7B"/>
<path d="M138.69 21.0699L139.38 20.0999C139.84 20.4399 140.25 20.6299 140.64 20.6299C141.03 20.6299 141.23 20.4799 141.23 20.2299C141.23 19.9299 140.75 19.7899 140.24 19.5899C139.64 19.3499 138.97 18.9499 138.97 18.1199C138.97 17.1799 139.73 16.5399 140.9 16.5399C141.68 16.5399 142.26 16.8599 142.68 17.1799L141.99 18.1099C141.63 17.8599 141.28 17.6899 140.95 17.6899C140.59 17.6899 140.42 17.8099 140.42 18.0499C140.42 18.3499 140.85 18.4599 141.37 18.6499C141.99 18.8899 142.69 19.2499 142.69 20.1499C142.69 21.0499 141.97 21.7799 140.61 21.7799C139.96 21.7799 139.2 21.4999 138.69 21.0799V21.0699Z" fill="#1B2B7B"/>
<path d="M142.95 21.0699L143.64 20.0999C144.1 20.4399 144.51 20.6299 144.9 20.6299C145.29 20.6299 145.49 20.4799 145.49 20.2299C145.49 19.9299 145.01 19.7899 144.5 19.5899C143.9 19.3499 143.23 18.9499 143.23 18.1199C143.23 17.1799 143.99 16.5399 145.16 16.5399C145.94 16.5399 146.52 16.8599 146.94 17.1799L146.25 18.1099C145.89 17.8599 145.54 17.6899 145.21 17.6899C144.85 17.6899 144.68 17.8099 144.68 18.0499C144.68 18.3499 145.11 18.4599 145.63 18.6499C146.25 18.8899 146.95 19.2499 146.95 20.1499C146.95 21.0499 146.23 21.7799 144.87 21.7799C144.22 21.7799 143.46 21.4999 142.95 21.0799V21.0699Z" fill="#1B2B7B"/>
<path d="M110.12 28.95C110.12 26.77 111.58 25.53 113.24 25.53C114.09 25.53 114.78 25.92 115.22 26.38L114.4 27.38C114.07 27.08 113.72 26.87 113.26 26.87C112.42 26.87 111.72 27.63 111.72 28.9C111.72 30.17 112.32 30.95 113.24 30.95C113.77 30.95 114.18 30.69 114.49 30.35L115.32 31.33C114.77 31.97 114.04 32.3 113.19 32.3C111.53 32.3 110.13 31.16 110.13 28.95H110.12Z" fill="#1B2B7B"/>
<path d="M115.65 29.6799C115.65 28.0299 116.83 27.0599 118.1 27.0599C119.37 27.0599 120.54 28.0299 120.54 29.6799C120.54 31.3299 119.36 32.3099 118.1 32.3099C116.84 32.3099 115.65 31.3399 115.65 29.6799ZM118.94 29.6799C118.94 28.8499 118.68 28.3299 118.1 28.3299C117.52 28.3299 117.25 28.8599 117.25 29.6799C117.25 30.4999 117.51 31.0399 118.1 31.0399C118.69 31.0399 118.94 30.5099 118.94 29.6799Z" fill="#1B2B7B"/>
<path d="M121.3 27.1799H122.57L122.68 27.7999H122.71C123.12 27.3999 123.63 27.0499 124.31 27.0499C125.4 27.0499 125.86 27.8299 125.86 29.0799V32.1699H124.3V29.2699C124.3 28.5799 124.12 28.3799 123.72 28.3799C123.37 28.3799 123.16 28.5399 122.86 28.8299V32.1699H121.3V27.1699V27.1799Z" fill="#1B2B7B"/>
<path d="M126.43 31.5999L127.12 30.6299C127.58 30.9699 127.99 31.1599 128.38 31.1599C128.77 31.1599 128.97 31.0099 128.97 30.7599C128.97 30.4599 128.49 30.3199 127.98 30.1199C127.38 29.8799 126.71 29.4799 126.71 28.6499C126.71 27.7099 127.47 27.0699 128.64 27.0699C129.42 27.0699 130 27.3899 130.42 27.7099L129.73 28.6399C129.37 28.3899 129.02 28.2199 128.69 28.2199C128.33 28.2199 128.16 28.3399 128.16 28.5799C128.16 28.8799 128.59 28.9899 129.11 29.1799C129.73 29.4199 130.43 29.7799 130.43 30.6799C130.43 31.5799 129.71 32.3099 128.35 32.3099C127.7 32.3099 126.94 32.0299 126.43 31.6099V31.5999Z" fill="#1B2B7B"/>
<path d="M131.06 30.2699V27.1799H132.62V30.0799C132.62 30.7599 132.8 30.9699 133.2 30.9699C133.55 30.9699 133.77 30.8299 134.03 30.4599V27.1899H135.59V32.1899H134.32L134.21 31.5099H134.17C133.76 31.9999 133.29 32.3199 132.62 32.3199C131.52 32.3199 131.06 31.5399 131.06 30.2899V30.2699Z" fill="#1B2B7B"/>
<path d="M136.64 30.55V25.16H138.2V30.6C138.2 30.93 138.35 31.03 138.47 31.03C138.52 31.03 138.56 31.03 138.65 31.01L138.83 32.16C138.66 32.23 138.41 32.29 138.06 32.29C136.99 32.29 136.64 31.59 136.64 30.54V30.55Z" fill="#1B2B7B"/>
<path d="M139.53 30.33V28.41H138.85V27.25L139.62 27.19L139.8 25.86H141.09V27.19H142.27V28.41H141.09V30.32C141.09 30.87 141.35 31.09 141.72 31.09C141.88 31.09 142.05 31.04 142.18 30.99L142.43 32.12C142.17 32.2 141.81 32.3 141.3 32.3C140.04 32.3 139.54 31.5 139.54 30.32L139.53 30.33Z" fill="#1B2B7B"/>
<path d="M142.93 25.68C142.93 25.2 143.27 24.88 143.8 24.88C144.33 24.88 144.67 25.2 144.67 25.68C144.67 26.16 144.32 26.49 143.8 26.49C143.28 26.49 142.93 26.17 142.93 25.68ZM143.02 27.18H144.58V32.18H143.02V27.18Z" fill="#1B2B7B"/>
<path d="M145.62 27.1799H146.89L147 27.7999H147.03C147.44 27.3999 147.95 27.0499 148.63 27.0499C149.72 27.0499 150.18 27.8299 150.18 29.0799V32.1699H148.62V29.2699C148.62 28.5799 148.44 28.3799 148.04 28.3799C147.69 28.3799 147.48 28.5399 147.18 28.8299V32.1699H145.62V27.1699V27.1799Z" fill="#1B2B7B"/>
<path d="M150.87 33.0199C150.87 32.6099 151.11 32.2699 151.57 32.0399V31.9999C151.31 31.8199 151.11 31.5599 151.11 31.1399C151.11 30.7899 151.34 30.4399 151.67 30.2099V30.1699C151.31 29.9199 150.99 29.4599 150.99 28.8699C150.99 27.6599 152 27.0599 153.08 27.0599C153.37 27.0599 153.64 27.0999 153.87 27.1799H155.7V28.3099H154.94C155.01 28.4499 155.07 28.6799 155.07 28.9199C155.07 30.0899 154.18 30.5999 153.08 30.5999C152.91 30.5999 152.71 30.5699 152.49 30.5099C152.38 30.6199 152.33 30.6899 152.33 30.8599C152.33 31.0899 152.53 31.1899 153.07 31.1899H153.86C155.09 31.1899 155.79 31.5699 155.79 32.4699C155.79 33.5199 154.69 34.2699 152.95 34.2699C151.8 34.2699 150.86 33.9099 150.86 33.0099L150.87 33.0199ZM154.3 32.7499C154.3 32.4499 154.04 32.3899 153.57 32.3899H153.1C152.74 32.3899 152.55 32.3699 152.39 32.3299C152.23 32.4699 152.16 32.6099 152.16 32.7799C152.16 33.1299 152.58 33.3099 153.21 33.3099C153.84 33.3099 154.3 33.0699 154.3 32.7599V32.7499ZM153.73 28.8699C153.73 28.3699 153.46 28.1099 153.09 28.1099C152.72 28.1099 152.46 28.3699 152.46 28.8699C152.46 29.3999 152.73 29.6599 153.09 29.6599C153.45 29.6599 153.73 29.3999 153.73 28.8699Z" fill="#1B2B7B"/>
<path d="M111.62 36.1699H113.5L115.53 42.7099H113.88L113.5 41.2099H111.57L111.19 42.7099H109.59L111.62 36.1699ZM111.87 39.9999H113.2L113.06 39.4499C112.88 38.7999 112.72 38.0199 112.54 37.3499H112.5C112.34 38.0299 112.17 38.7999 112 39.4499L111.86 39.9999H111.87Z" fill="#1B2B7B"/>
<path d="M115.57 42.13L116.26 41.16C116.72 41.5 117.13 41.69 117.52 41.69C117.91 41.69 118.11 41.54 118.11 41.29C118.11 40.99 117.63 40.85 117.12 40.65C116.52 40.41 115.85 40.01 115.85 39.18C115.85 38.24 116.61 37.6 117.78 37.6C118.56 37.6 119.14 37.92 119.56 38.24L118.87 39.17C118.51 38.92 118.16 38.75 117.83 38.75C117.47 38.75 117.3 38.87 117.3 39.11C117.3 39.41 117.73 39.52 118.25 39.71C118.87 39.95 119.57 40.31 119.57 41.21C119.57 42.11 118.85 42.84 117.49 42.84C116.84 42.84 116.08 42.56 115.57 42.14V42.13Z" fill="#1B2B7B"/>
<path d="M119.83 42.13L120.52 41.16C120.98 41.5 121.39 41.69 121.78 41.69C122.17 41.69 122.37 41.54 122.37 41.29C122.37 40.99 121.89 40.85 121.38 40.65C120.78 40.41 120.11 40.01 120.11 39.18C120.11 38.24 120.87 37.6 122.04 37.6C122.82 37.6 123.4 37.92 123.82 38.24L123.13 39.17C122.77 38.92 122.42 38.75 122.09 38.75C121.73 38.75 121.56 38.87 121.56 39.11C121.56 39.41 121.99 39.52 122.51 39.71C123.13 39.95 123.83 40.31 123.83 41.21C123.83 42.11 123.11 42.84 121.75 42.84C121.1 42.84 120.34 42.56 119.83 42.14V42.13Z" fill="#1B2B7B"/>
<path d="M124.24 40.21C124.24 38.56 125.42 37.59 126.69 37.59C127.96 37.59 129.13 38.56 129.13 40.21C129.13 41.86 127.95 42.84 126.69 42.84C125.43 42.84 124.24 41.87 124.24 40.21ZM127.53 40.21C127.53 39.38 127.27 38.86 126.69 38.86C126.11 38.86 125.84 39.39 125.84 40.21C125.84 41.03 126.1 41.57 126.69 41.57C127.28 41.57 127.53 41.04 127.53 40.21Z" fill="#1B2B7B"/>
<path d="M129.61 40.21C129.61 38.56 130.84 37.59 132.24 37.59C132.85 37.59 133.32 37.8 133.7 38.13L132.97 39.12C132.74 38.94 132.55 38.86 132.34 38.86C131.65 38.86 131.22 39.39 131.22 40.21C131.22 41.03 131.68 41.57 132.28 41.57C132.6 41.57 132.89 41.42 133.15 41.22L133.76 42.25C133.27 42.68 132.64 42.84 132.11 42.84C130.71 42.84 129.63 41.87 129.63 40.21H129.61Z" fill="#1B2B7B"/>
<path d="M134.29 36.21C134.29 35.73 134.63 35.41 135.16 35.41C135.69 35.41 136.03 35.73 136.03 36.21C136.03 36.69 135.68 37.02 135.16 37.02C134.64 37.02 134.29 36.7 134.29 36.21ZM134.38 37.71H135.94V42.71H134.38V37.71Z" fill="#1B2B7B"/>
<path d="M136.76 41.31C136.76 40.26 137.59 39.69 139.53 39.48C139.49 39.08 139.28 38.84 138.78 38.84C138.38 38.84 137.97 39 137.47 39.28L136.93 38.25C137.59 37.85 138.3 37.59 139.08 37.59C140.37 37.59 141.1 38.31 141.1 39.87V42.71H139.83L139.72 42.21H139.68C139.27 42.58 138.8 42.83 138.25 42.83C137.33 42.83 136.77 42.15 136.77 41.31H136.76ZM139.53 41.23V40.43C138.56 40.55 138.24 40.84 138.24 41.19C138.24 41.48 138.45 41.62 138.78 41.62C139.11 41.62 139.31 41.47 139.53 41.22V41.23Z" fill="#1B2B7B"/>
<path d="M142.09 40.86V38.94H141.41V37.78L142.18 37.72L142.36 36.39H143.65V37.72H144.83V38.94H143.65V40.85C143.65 41.4 143.91 41.62 144.28 41.62C144.44 41.62 144.61 41.57 144.74 41.52L144.99 42.65C144.73 42.73 144.37 42.83 143.86 42.83C142.6 42.83 142.1 42.03 142.1 40.85L142.09 40.86Z" fill="#1B2B7B"/>
<path d="M145.48 36.21C145.48 35.73 145.82 35.41 146.35 35.41C146.88 35.41 147.22 35.73 147.22 36.21C147.22 36.69 146.87 37.02 146.35 37.02C145.83 37.02 145.48 36.7 145.48 36.21ZM145.57 37.71H147.13V42.71H145.57V37.71Z" fill="#1B2B7B"/>
<path d="M147.89 40.21C147.89 38.56 149.07 37.59 150.34 37.59C151.61 37.59 152.78 38.56 152.78 40.21C152.78 41.86 151.6 42.84 150.34 42.84C149.08 42.84 147.89 41.87 147.89 40.21ZM151.18 40.21C151.18 39.38 150.92 38.86 150.34 38.86C149.76 38.86 149.49 39.39 149.49 40.21C149.49 41.03 149.75 41.57 150.34 41.57C150.93 41.57 151.18 41.04 151.18 40.21Z" fill="#1B2B7B"/>
<path d="M153.54 37.71H154.81L154.92 38.33H154.95C155.36 37.93 155.87 37.58 156.55 37.58C157.64 37.58 158.1 38.36 158.1 39.61V42.7H156.54V39.8C156.54 39.11 156.36 38.91 155.96 38.91C155.61 38.91 155.4 39.07 155.1 39.36V42.7H153.54V37.7V37.71Z" fill="#1B2B7B"/>
<path d="M6.84003 51.5101C6.84003 52.8101 7.20003 54.1001 8.47003 54.6901L7.70003 55.6601C6.96003 55.3001 6.48003 54.7001 6.19003 53.9401C5.88003 54.7501 5.35003 55.4201 4.54003 55.7901L3.78003 54.7901C5.13003 54.2101 5.55003 52.8401 5.55003 51.5001V50.6001H6.85003V51.5001L6.84003 51.5101ZM10.87 53.7701H9.87003V57.2301H8.58003V50.1001H9.87003V52.7701H10.87V53.7701Z" fill="#1B2B7B"/>
<path d="M17.8 53.9201C16.96 54.1001 16.12 54.1401 14.4 54.1401H13.75V50.6401H17.13V51.6101H15.04V53.1801C16.29 53.1601 16.97 53.1201 17.68 52.9701L17.8 53.9301V53.9201ZM15.81 56.1601H19.66V57.1301H14.52V54.7101H15.81V56.1701V56.1601ZM20.37 51.9501V52.9501H19.44V55.2501H18.15V50.1001H19.44V51.9501H20.37Z" fill="#1B2B7B"/>
<path d="M29.3701 50.1001V54.0101H28.0801V52.6301H26.9601V53.8201H23.3401V50.4501H24.6101V51.2501H25.7001V50.4601H26.9601V51.6601H28.0801V50.1001H29.3701ZM28.1001 54.2801H29.3701V57.1401H24.3101V54.2801H25.5801V54.8001H28.0901V54.2801H28.1001ZM25.7101 52.1801H24.6201V52.8601H25.7101V52.1801ZM28.1001 55.7201H25.5901V56.1801H28.1001V55.7201Z" fill="#1B2B7B"/>
<path d="M34.7601 54.2101C33.6001 54.2101 32.6801 53.4301 32.6801 52.3701C32.6801 51.3101 33.6001 50.5301 34.7601 50.5301C35.9201 50.5301 36.8401 51.3101 36.8401 52.3701C36.8401 53.4301 35.9201 54.2101 34.7601 54.2101ZM39.0401 56.1601V57.1301H33.7801V54.6901H35.0701V56.1601H39.0401ZM34.7601 53.1501C35.2201 53.1501 35.5801 52.8801 35.5801 52.3701C35.5801 51.8601 35.2201 51.5901 34.7601 51.5901C34.3001 51.5901 33.9401 51.8501 33.9401 52.3701C33.9401 52.8901 34.3001 53.1501 34.7601 53.1501ZM38.8601 55.1801H37.5701V50.1001H38.8601V55.1801Z" fill="#1B2B7B"/>
<path d="M53.38 52.53V53.49H46.62V52.53H51.21C51.31 52.06 51.34 51.68 51.35 51.34H47.43V50.37H52.63V50.86C52.63 51.31 52.63 51.86 52.49 52.52H53.37L53.38 52.53ZM48.64 56.26H52.78V57.2H47.35V55.09H51.3V54.8H47.34V53.87H52.59V55.98H48.64V56.27V56.26Z" fill="#1B2B7B"/>
<path d="M62.93 55.5V56.49H56.17V55.5H58.9V54.57H56.91V52.06H60.94V51.48H56.9V50.52H62.21V53.01H58.18V53.61H62.38V54.57H60.19V55.5H62.93Z" fill="#1B2B7B"/>
<path d="M69.62 53.5501H66V50.3701H67.27V51.0801H68.36V50.3701H69.62V51.4601H70.74V50.1001H72.03V53.6901H70.74V52.4201H69.62V53.5501ZM72.21 56.2201V57.1501H67.02V55.1001H70.75V54.8601H67.01V53.9301H72.02V55.9701H68.29V56.2201H72.2H72.21ZM68.36 52.0001H67.27V52.6001H68.36V52.0001Z" fill="#1B2B7B"/>
<path d="M76.88 50.6301V52.2901H78.09V50.6301H79.36V55.6101H75.6V50.6301H76.87H76.88ZM76.88 54.6501H78.09V53.2401H76.88V54.6501ZM81.51 50.0901V57.2601H80.22V50.0901H81.51Z" fill="#1B2B7B"/>
<path d="M91.5801 55.44V56.42H84.8201V55.44H91.5801ZM85.0401 53.54C86.7801 53.3 87.4101 52.44 87.5001 51.59H85.3701V50.63H90.9901V51.59H88.8601C88.9501 52.43 89.5801 53.26 91.3701 53.51L90.8801 54.48C89.5201 54.26 88.6401 53.7 88.1901 52.95C87.7401 53.72 86.8801 54.29 85.5301 54.52L85.0401 53.55V53.54Z" fill="#1B2B7B"/>
<path d="M96.0001 54.4701C96.9201 54.4501 97.9201 54.3601 98.9201 54.1801L99.0501 55.1901C97.7801 55.4401 96.5301 55.5101 95.4001 55.5101H94.7101V50.7601H95.9901V54.4701H96.0001ZM100.69 50.0901V57.2101H99.4001V50.0901H100.69Z" fill="#1B2B7B"/>
<path d="M110.68 55.4201V56.4101H103.92V55.4201H110.68ZM109.97 54.3601C108.61 54.1201 107.73 53.4701 107.26 52.6401C106.78 53.4701 105.91 54.1201 104.56 54.3601L104.03 53.3401C105.91 53.0401 106.58 51.8901 106.58 50.9701V50.4701H107.96V50.9701C107.96 51.9101 108.6 53.0401 110.51 53.3401L109.98 54.3601H109.97Z" fill="#1B2B7B"/>
<path d="M117.42 50.6201C117.42 52.7201 116.6 54.0301 114.03 54.8101L113.54 53.8601C114.44 53.5901 115.04 53.2801 115.44 52.9101L113.75 53.0301L113.58 52.0901L115.99 52.0301C116.03 51.8901 116.06 51.7401 116.09 51.5801H113.97V50.6201H117.43H117.42ZM119.97 56.1601V57.1301H114.78V54.8501H116.07V56.1601H119.96H119.97ZM118.49 52.1901V50.0901H119.78V55.3501H118.49V53.1801H117.35V52.2001H118.49V52.1901Z" fill="#1B2B7B"/>
<path d="M126.89 53.6501C126.13 53.4201 125.62 52.9901 125.3 52.4401C124.98 53.0501 124.43 53.5301 123.6 53.7601L122.94 52.8001C124.25 52.4401 124.64 51.5801 124.64 50.7501V50.3201H125.95V50.7501C125.95 51.5401 126.32 52.3501 127.54 52.7001L126.89 53.6501ZM129.51 56.2201V57.1501H124.32V55.1101H128.05V54.8801H124.31V53.9501H129.32V55.9801H125.59V56.2201H129.5H129.51ZM128.04 51.9601H126.82V51.0001H128.04V50.0901H129.33V53.6901H128.04V51.9601Z" fill="#1B2B7B"/>
<path d="M137.16 53.9801C136.12 54.1301 135.16 54.1501 133.62 54.1501H132.96V50.5801H136.58V51.5401H134.24V51.9001H136.35V52.8301H134.24V53.2001C135.39 53.2001 136.17 53.1601 137.04 53.0301L137.16 53.9801ZM138.86 55.8501C138.86 56.7301 137.86 57.2301 136.27 57.2301C134.68 57.2301 133.69 56.7301 133.69 55.8501C133.69 54.9701 134.69 54.4601 136.27 54.4601C137.85 54.4601 138.86 54.9701 138.86 55.8501ZM137.58 55.8501C137.58 55.5201 137.16 55.3901 136.27 55.3901C135.38 55.3901 134.97 55.5201 134.97 55.8501C134.97 56.1801 135.39 56.3101 136.27 56.3101C137.15 56.3101 137.58 56.1801 137.58 55.8501ZM138.83 54.3601H137.54V50.1001H138.83V54.3601Z" fill="#1B2B7B"/>
<path d="M146.2 51.58H142.14V50.63H143.6V50.04H144.89V50.63H146.21V51.58H146.2ZM144.24 54.33C143.2 54.33 142.46 53.79 142.46 53.03C142.46 52.27 143.21 51.73 144.24 51.73C145.27 51.73 146.03 52.27 146.03 53.03C146.03 53.79 145.28 54.33 144.24 54.33ZM147.16 54.61H148.43V57.16H143.32V54.61H144.59V55.01H147.15V54.61H147.16ZM144.24 53.44C144.6 53.44 144.84 53.31 144.84 53.03C144.84 52.75 144.6 52.62 144.24 52.62C143.88 52.62 143.65 52.75 143.65 53.03C143.65 53.31 143.89 53.44 144.24 53.44ZM147.16 55.9H144.6V56.23H147.16V55.9ZM148.43 50.09V54.35H147.14V53.91H146.33V52.95H147.14V52.49H146.35V51.53H147.14V50.09H148.43Z" fill="#1B2B7B"/>
<path d="M154.72 55.0901C155.28 55.0601 155.84 55.0101 156.37 54.9501L156.47 55.8201C154.85 56.1201 153.16 56.1201 151.86 56.1201L151.71 55.1401C152.24 55.1401 152.83 55.1401 153.45 55.1201V54.6101C152.69 54.4401 152.2 53.9601 152.2 53.3301C152.2 52.5301 152.99 51.9801 154.1 51.9801C155.21 51.9801 156 52.5301 156 53.3301C156 53.9601 155.5 54.4501 154.73 54.6101V55.0701L154.72 55.0901ZM156.32 51.7901H151.84V50.8401H153.43V50.1401H154.72V50.8401H156.31V51.7901H156.32ZM153.41 53.3501C153.41 53.6501 153.68 53.7901 154.09 53.7901C154.5 53.7901 154.76 53.6501 154.76 53.3501C154.76 53.0501 154.49 52.9201 154.09 52.9201C153.69 52.9201 153.41 53.0601 153.41 53.3501ZM157.99 50.1001V57.2201H156.7V50.1001H157.99Z" fill="#1B2B7B"/>
</svg>
